<svg width="38" height="45" viewBox="0 0 38 45" fill="none" xmlns="http://www.w3.org/2000/svg">
<path d="M24.8657 6.36811C24.8657 6.36811 30.9415 0.934794 32.8111 1.51898C34.6805 2.10317 30.3573 10.9834 30.3573 10.9834L24.8657 6.36811Z" fill="url(#paint0_linear_189_57)"/>
<path d="M29.6772 30.9137C25.4708 31.3063 26.2173 34.0896 26.4575 39.239C26.6977 44.3865 23.1711 45 23.1711 45C24.6977 40.5869 22.4877 36.503 12.7586 32.5106C12.7568 32.5087 12.7532 32.5088 12.7517 32.5069C10.8832 31.6937 7.08361 28.7317 8.75048 23.7821C8.85911 23.4581 8.99218 23.1267 9.15 22.7849C11.7212 17.2342 17.3875 18.3594 17.3875 18.3594C13.8069 19.481 12.6904 24.6285 12.6572 24.7897C12.7134 24.6599 14.6587 20.2082 19.682 20.7725C24.7804 21.3473 23.6974 23.0914 29.0727 24.4496C34.4481 25.8078 37.5872 22.697 37.5872 22.697C38.0691 27.736 33.8835 30.5175 29.6772 30.9137Z" fill="url(#paint1_linear_189_57)"/>
<path d="M37.587 22.697C37.587 22.697 34.4479 25.8081 29.0725 24.4496C23.6971 23.0914 24.7801 21.3473 19.6818 20.7725C14.6585 20.2082 12.7131 24.6599 12.657 24.7897C12.6902 24.6285 13.8067 19.481 17.3876 18.3591C17.3876 18.3591 11.7213 17.2339 9.15008 22.7845C8.99226 23.1264 8.85919 23.4575 8.75056 23.7818C7.08369 28.7314 10.8836 31.6934 12.7518 32.5066C12.4361 32.3769 12.1121 32.2471 11.7789 32.1174C1.21918 27.9985 2.75267 19.1916 2.75267 19.1916C1.61357 20.506 0.211334 24.0115 0.211334 24.0115C0.211334 24.0115 -2.65077 8.00452 12.715 4.32378C14.1154 3.98732 15.4422 3.78395 16.7005 3.68588C17.6802 1.86481 18.9684 0 20.1341 0C21.3924 0 22.3477 2.17501 22.9506 4.1204C27.6006 5.19312 30.8025 7.76765 32.7008 9.78847C34.087 11.2643 34.7759 12.4439 34.8233 12.5262L34.8269 12.5314C33.9576 18.3817 35.0408 20.8669 36.0958 21.9203C36.0958 21.9203 36.0976 21.924 36.0994 21.924C36.851 22.6744 37.587 22.697 37.587 22.697Z" fill="url(#paint2_linear_189_57)"/>
<path d="M16.7003 3.68591L14.3798 8.23419C14.378 8.236 14.378 8.23782 14.378 8.23782C14.378 8.23782 7.52859 11.3926 6.12636 18.4469C6.12636 18.4469 8.1858 16.1684 9.80681 15.8181C9.80681 15.8181 6.68701 19.0691 8.75007 23.7822C7.0832 28.7318 10.8831 31.6938 12.7513 32.507C12.4357 32.3772 12.1116 32.2475 11.7784 32.1177C3.1502 28.7526 2.59618 22.2556 2.68218 19.9928V19.991C2.70149 19.4862 2.75218 19.1916 2.75218 19.1916C1.61308 20.5061 0.210846 24.0115 0.210846 24.0115C0.210846 24.0115 -2.65126 8.00456 12.7145 4.32381C12.8931 4.28006 13.072 4.23962 13.2492 4.201C14.4535 3.93667 15.6031 3.77191 16.7003 3.68591Z" fill="url(#paint3_linear_189_57)"/>
<path d="M26.4575 39.2386C26.4644 39.3771 26.468 39.5102 26.468 39.6418C26.5118 44.4179 23.1711 44.9997 23.1711 44.9997C24.5224 41.0914 22.9451 37.4423 15.8117 33.8859C15.8099 33.8859 15.8099 33.8859 15.8099 33.8859C14.8863 33.4248 13.8715 32.9677 12.7586 32.5102C12.7568 32.5084 12.7532 32.5084 12.7517 32.5066C10.8832 31.6934 7.08361 28.7314 8.75048 23.7818C8.75048 23.7818 11.4864 27.7218 15.6349 29.3569C19.6696 30.9466 20.8298 32.566 20.8911 32.6539C20.8579 32.531 19.7695 28.5561 17.1545 27.7797C17.1545 27.7797 22.7034 28.2178 24.4282 34.6729C24.4282 34.6729 24.9083 30.5718 29.6775 30.9134C25.4708 31.3062 26.2176 34.0893 26.4575 39.2386Z" fill="url(#paint4_linear_189_57)"/>
<path d="M26.4678 39.6418C26.5116 44.4179 23.1709 44.9997 23.1709 44.9997C24.5221 41.0914 22.9449 37.4424 15.8115 33.8859C15.9606 33.9019 23.6181 34.7239 26.4678 39.6418Z" fill="url(#paint5_linear_189_57)"/>
<path d="M14.3799 8.23419C14.4218 8.11138 15.3877 5.26165 14.4903 4.70251C14.1958 4.51844 13.7368 4.34856 13.2495 4.2013C14.4535 3.93667 15.6035 3.77191 16.7006 3.68591L14.3799 8.23419Z" fill="url(#paint6_linear_189_57)"/>
<path d="M2.68262 19.9909C2.70193 19.4861 2.75262 19.1916 2.75262 19.1916C2.73542 19.4547 2.71249 19.7227 2.68262 19.9909Z" fill="url(#paint7_linear_189_57)"/>
<path d="M4.94333 11.3485C4.94333 11.3485 3.01545 15.1168 2.75262 19.1916C1.61352 20.506 0.211284 24.0115 0.211284 24.0115C0.211284 24.0115 0.079723 15.5549 4.94333 11.3485Z" fill="url(#paint8_linear_189_57)"/>
<path d="M36.0953 21.9207C32.1343 19.1093 33.9798 12.7647 33.9798 12.7647C29.2477 6.42701 23.5217 5.72604 23.5217 5.72604L22.9502 4.12073C27.6002 5.19345 30.802 7.76799 32.7003 9.78881C34.0866 11.2647 34.7755 12.4442 34.8229 12.5266L34.8265 12.5317C33.9571 18.382 35.0404 20.8673 36.0953 21.9207Z" fill="url(#paint9_linear_189_57)"/>
<defs>
<linearGradient id="paint0_linear_189_57" x1="24.8656" y1="6.22927" x2="33.28" y2="6.22927" gradientUnits="userSpaceOnUse">
<stop stop-color="#FF002B"/>
<stop offset="1" stop-color="#FF5500"/>
</linearGradient>
<linearGradient id="paint1_linear_189_57" x1="8.3379" y1="31.6327" x2="37.625" y2="31.6327" gradientUnits="userSpaceOnUse">
<stop stop-color="#FFD9D9"/>
<stop offset="1" stop-color="#EFE0D9"/>
</linearGradient>
<linearGradient id="paint2_linear_189_57" x1="0.000682108" y1="16.2534" x2="37.5871" y2="16.2534" gradientUnits="userSpaceOnUse">
<stop stop-color="#FF002B"/>
<stop offset="1" stop-color="#FF5500"/>
</linearGradient>
<linearGradient id="paint3_linear_189_57" x1="9.10964" y1="1.58202" x2="7.0941" y2="29.0988" gradientUnits="userSpaceOnUse">
<stop stop-color="#FF002B"/>
<stop offset="1" stop-color="#92002B"/>
</linearGradient>
<linearGradient id="paint4_linear_189_57" x1="8.3379" y1="34.3908" x2="29.6772" y2="34.3908" gradientUnits="userSpaceOnUse">
<stop stop-color="#FFB8B8"/>
<stop offset="1" stop-color="#FFD9D9"/>
</linearGradient>
<linearGradient id="paint5_linear_189_57" x1="21.1673" y1="36.8459" x2="22.3456" y2="40.3526" gradientUnits="userSpaceOnUse">
<stop stop-color="#FFA3A3"/>
<stop offset="1" stop-color="#FFD9D9"/>
</linearGradient>
<linearGradient id="paint6_linear_189_57" x1="13.8465" y1="8.95106" x2="15.2487" y2="2.72912" gradientUnits="userSpaceOnUse">
<stop stop-color="#A10031"/>
<stop offset="1" stop-color="#92002B" stop-opacity="0"/>
</linearGradient>
<linearGradient id="paint7_linear_189_57" x1="2.68277" y1="19.5913" x2="2.75286" y2="19.5913" gradientUnits="userSpaceOnUse">
<stop stop-color="#FF3600"/>
<stop offset="1" stop-color="#FF002B"/>
</linearGradient>
<linearGradient id="paint8_linear_189_57" x1="0.210831" y1="17.6801" x2="4.94339" y2="17.6801" gradientUnits="userSpaceOnUse">
<stop stop-color="#A10031"/>
<stop offset="1" stop-color="#92002B" stop-opacity="0"/>
</linearGradient>
<linearGradient id="paint9_linear_189_57" x1="26.8223" y1="-2.96907" x2="30.5865" y2="17.6085" gradientUnits="userSpaceOnUse">
<stop stop-color="#EB7500"/>
<stop offset="1" stop-color="#FF5500"/>
</linearGradient>
</defs>
</svg>
